<?xml version="1.0" encoding="UTF-8"?>
<svg version="1.1" xmlns="http://www.w3.org/2000/svg" width="1024" height="1024">
<path d="M0 0 C337.92 0 675.84 0 1024 0 C1024 337.92 1024 675.84 1024 1024 C686.08 1024 348.16 1024 0 1024 C0 686.08 0 348.16 0 0 Z " fill="#0E0E0D" transform="translate(0,0)"/>
<path d="M0 0 C11.55 0 23.1 0 35 0 C35.33 32.34 35.66 64.68 36 98 C39.96 93.38 43.92 88.76 48 84 C53.1875 78.3125 53.1875 78.3125 55.63671875 75.64453125 C58.79219369 72.11352872 61.74583927 68.43473442 64.71875 64.75 C67.06718968 61.91900422 69.50909902 59.20616402 72 56.5 C76.11378909 52.0301488 79.97087297 47.40955107 83.78515625 42.68359375 C86.66480887 39.19449084 89.70693876 35.87003079 92.75390625 32.52734375 C95.06187598 29.93037607 97.25555863 27.26595987 99.4375 24.5625 C103.27833696 19.81675381 107.30306137 15.28473324 111.4453125 10.80078125 C113.90744157 8.21054117 113.90744157 8.21054117 115.43370056 6.00395203 C119.64881953 0.42359324 119.64881953 0.42359324 123.24609375 -0.70414734 C125.82306763 -0.92288066 128.28776582 -0.90210883 130.87109375 -0.78125 C131.793423 -0.76993042 132.71575226 -0.75861084 133.66603088 -0.74694824 C136.59202978 -0.70240791 139.51300075 -0.60209862 142.4375 -0.5 C144.42896532 -0.45984361 146.42050802 -0.42334662 148.41210938 -0.390625 C153.27665639 -0.30274684 158.13747801 -0.1648635 163 0 C161.27814915 2.9706588 159.55673286 5.70165006 157.28515625 8.27734375 C156.77017578 8.86580078 156.25519531 9.45425781 155.72460938 10.06054688 C154.90186523 10.98963867 154.90186523 10.98963867 154.0625 11.9375 C152.88633854 13.27961481 151.71056576 14.62207034 150.53515625 15.96484375 C149.64594482 16.97780518 149.64594482 16.97780518 148.73876953 18.01123047 C146.1362413 20.98794978 143.56749667 23.99307218 141 27 C136.85191635 31.84959276 132.68311314 36.68059633 128.5 41.5 C115.76577924 56.17843224 115.76577924 56.17843224 103.36328125 71.13671875 C100.0336591 75.17078988 96.60827734 79.12153659 93.16015625 83.0546875 C90.12914856 86.54764021 87.48516446 90.09811471 85 94 C85.66644531 94.77601563 86.33289063 95.55203125 87.01953125 96.3515625 C92.37916599 102.62232532 97.59807876 108.97268283 102.66137695 115.48486328 C106.35982744 120.22506673 110.16418289 124.87051179 114 129.5 C118.71315544 135.19134549 123.34453269 140.93324992 127.88671875 146.76171875 C131.36853934 151.22089248 134.92245524 155.61736343 138.5 160 C142.63440136 165.06541904 146.72379293 170.16063312 150.75 175.3125 C155.82049507 181.79913656 161.00974091 188.18171967 166.26123047 194.52294922 C167.53013147 196.05546834 168.79634724 197.59020953 170.0625 199.125 C170.81660156 200.03507813 171.57070313 200.94515625 172.34765625 201.8828125 C174 204 174 204 174 205 C167.93764879 205.46763098 161.8785311 205.84444124 155.80541992 206.14135742 C153.74502469 206.25445249 151.68578567 206.39141229 149.62866211 206.5534668 C133.05282827 207.83533128 133.05282827 207.83533128 128.02612305 204.81332397 C124.16595688 201.4396749 121.62093908 197.36415185 119 193 C118.01590917 191.72482562 117.01354358 190.4630168 115.9765625 189.23046875 C115.20054687 188.22628906 114.42453125 187.22210937 113.625 186.1875 C109.6471515 181.07146419 105.59886209 176.01956854 101.5 171 C96.99353705 165.47835938 92.55273133 159.91246645 88.16845703 154.29345703 C84.63026387 149.77107975 81.01099923 145.3189405 77.375 140.875 C72.06483622 134.38000151 66.95963934 127.76663972 62 121 C53.07612833 128.13909734 45.69985266 136.95686882 38.2421875 145.57421875 C37.51888012 146.40443006 36.7785963 147.2214037 36 148 C35.87662826 149.84031989 35.82208692 151.68529411 35.79467773 153.52954102 C35.77473251 154.71068985 35.75478729 155.89183868 35.73423767 157.10877991 C35.70916893 159.03686745 35.70916893 159.03686745 35.68359375 161.00390625 C35.66281265 162.31205795 35.64203156 163.62020966 35.62062073 164.96800232 C35.565337 168.45155447 35.51595569 171.9351666 35.46777344 175.41882324 C35.41760426 178.9713272 35.36194809 182.52374481 35.30664062 186.07617188 C35.1984607 193.05071555 35.0994873 200.02530514 35 207 C23.45 207 11.9 207 0 207 C0 138.69 0 70.38 0 0 Z " fill="#00A1FD" transform="translate(432,329)"/>
<path d="M0 0 C6.42709576 5.24424469 12.21433561 11.09808375 18.05175591 16.97659111 C19.90456349 18.84229648 21.76059408 20.70474265 23.6174469 22.56642151 C28.22711965 27.18938299 32.83131769 31.81778446 37.43566895 36.44604492 C41.3345175 40.36472096 45.23547351 44.28127651 49.13917732 48.19511604 C50.95574768 50.01810512 52.7692468 51.84411058 54.58262634 53.67027283 C59.71641412 58.82650751 64.848036 63.93435376 70.41419983 68.63075256 C72.02200613 70.01900103 73.51637577 71.48069054 75 73 C73.69316301 75.88330643 72.30277863 77.94564108 70.0640564 80.17645264 C69.46390213 80.77935623 68.86374786 81.38225983 68.2454071 82.00343323 C67.58869522 82.65295456 66.93198334 83.30247589 66.25537109 83.97167969 C65.56257553 84.6647673 64.86977997 85.35785492 64.1559906 86.07194519 C61.86651526 88.36002799 59.5700387 90.64094651 57.2734375 92.921875 C55.68402291 94.5075592 54.09504952 96.09368574 52.50650024 97.68023682 C48.32532415 101.85377854 44.13817654 106.02127917 39.94976807 110.18756104 C35.67643937 114.44042719 31.40877027 118.69896419 27.140625 122.95703125 C18.76595419 131.31025559 10.38496557 139.65711048 2 148 C-1.66434951 146.28974534 -3.9345589 144.24002076 -6.75 141.3125 C-10.9915821 136.97652067 -15.36512583 132.90986592 -20 129 C-18.43056316 125.21698773 -16.06898723 122.82743453 -13.18310547 119.95605469 C-12.69513489 119.46779205 -12.20716431 118.97952942 -11.70440674 118.47647095 C-10.09669725 116.87015038 -8.48202899 115.27102287 -6.8671875 113.671875 C-5.74859765 112.55701683 -4.63044971 111.44171513 -3.51272583 110.32598877 C-0.57440675 107.39529391 2.36986955 104.47065578 5.31542969 101.54724121 C8.32198262 98.56117275 11.32285882 95.56941141 14.32421875 92.578125 C20.21060686 86.71316544 26.103301 80.85459268 32 75 C26.81239418 68.71486996 21.12572734 62.99688842 15.3515625 57.25390625 C14.32858694 56.23279952 13.30583472 55.211469 12.28329468 54.18992615 C9.61246639 51.52288647 6.93864718 48.85886564 4.26416016 46.19549561 C1.52713264 43.4687615 -1.20700901 40.73913695 -3.94140625 38.00976562 C-9.29147548 32.67036911 -14.64471273 27.33416348 -20 22 C-13.68716986 14.59680835 -13.68716986 14.59680835 -10.859375 11.54296875 C-10.34632813 10.98802734 -9.83328125 10.43308594 -9.3046875 9.86132812 C-8.79164063 9.30896484 -8.27859375 8.75660156 -7.75 8.1875 C-7.22148438 7.61580078 -6.69296875 7.04410156 -6.1484375 6.45507812 C-4.12747309 4.27253915 -2.10349818 2.10349818 0 0 Z " fill="#00A1FD" transform="translate(621,358)"/>
<path d="M0 0 C5.14040004 2.43984993 8.38522932 6.26441351 12.25 10.375 C12.99507813 11.14328125 13.74015625 11.9115625 14.5078125 12.703125 C15.21164062 13.44820313 15.91546875 14.19328125 16.640625 14.9609375 C17.28547852 15.63946777 17.93033203 16.31799805 18.59472656 17.01708984 C20 19 20 19 20 23 C18.09507751 25.3455658 18.09507751 25.3455658 15.39428711 27.96459961 C14.90500229 28.44483078 14.41571747 28.92506195 13.91160583 29.41984558 C12.84859413 30.46094681 11.78107456 31.49746058 10.7096386 32.52989006 C9.0153051 34.16395417 7.33463036 35.81097688 5.65711975 37.46229553 C0.8857049 42.15414422 -3.9106365 46.82022034 -8.71313477 51.48022461 C-11.64987742 54.33164262 -14.57194285 57.19745351 -17.4857769 60.07226753 C-18.60004811 61.1653743 -19.72011168 62.25260834 -20.84593391 63.33381462 C-22.41890454 64.84453922 -23.97274245 66.3727192 -25.52368164 67.90600586 C-26.41414688 68.77108261 -27.30461212 69.63615936 -28.22206116 70.52745056 C-30.28876759 72.86605415 -30.28876759 72.86605415 -29.8891449 75.75587463 C-28.74301551 78.64860679 -27.79228136 78.75898606 -25 80 C-23.29680077 81.6382768 -21.64807084 83.30716237 -20 85 C-18.5579693 86.44549977 -17.11399972 87.88906645 -15.66870117 89.33129883 C-3.44580078 101.55419922 8.77709961 113.77709961 21 126 C14.74442981 133.38561539 14.74442981 133.38561539 11.5703125 136.52734375 C10.71953125 137.37329102 10.71953125 137.37329102 9.8515625 138.23632812 C9.28179687 138.79771484 8.71203125 139.35910156 8.125 139.9375 C7.53203125 140.52595703 6.9390625 141.11441406 6.328125 141.72070312 C4.88773534 143.14947674 3.4442033 144.57508132 2 146 C-1.26233121 144.57117786 -3.40993909 142.82946748 -5.90722656 140.30395508 C-6.66191223 139.54589066 -7.4165979 138.78782623 -8.19415283 138.00679016 C-9.40515656 136.775597 -9.40515656 136.775597 -10.640625 135.51953125 C-11.90214386 134.25021004 -11.90214386 134.25021004 -13.18914795 132.95524597 C-15.88088337 130.24569471 -18.56586526 127.52957923 -21.25 124.8125 C-23.92066362 122.11410238 -26.59280522 119.41721276 -29.26800537 116.72331238 C-30.93152597 115.04766586 -32.5923676 113.36935397 -34.25006104 111.6879425 C-38.42086738 107.48163586 -42.67478078 103.46739863 -47.16595459 99.60572815 C-49.90546528 97.20725459 -52.47129364 94.65367954 -55.03125 92.06640625 C-55.5526355 91.5436058 -56.074021 91.02080536 -56.61120605 90.48216248 C-58.24321078 88.84465002 -59.87166574 87.20366151 -61.5 85.5625 C-62.61955632 84.4379167 -63.73934629 83.31356595 -64.859375 82.18945312 C-67.57561534 79.46230656 -70.28868292 76.73204093 -73 74 C-68.93445329 69.12023249 -64.67173724 64.53144744 -60.16845703 60.05493164 C-59.51409164 59.40042023 -58.85972626 58.74590881 -58.18553162 58.07156372 C-56.04532311 55.93204586 -53.90160617 53.79608124 -51.7578125 51.66015625 C-50.26401251 50.16822345 -48.77043472 48.67606814 -47.27706909 47.18370056 C-43.36337761 43.27381051 -39.44669135 39.36693406 -35.52935791 35.46069336 C-31.52555912 31.46715994 -27.52462187 27.47076191 -23.5234375 23.47460938 C-15.68507787 15.64694515 -7.84354907 7.82246401 0 0 Z " fill="#00A5FD" transform="translate(391,359)"/>
<path d="M0 0 C0.86044922 -0.02900391 1.72089844 -0.05800781 2.60742188 -0.08789062 C12.97216406 -0.18942917 21.20438971 4.45191147 28.8125 11.3125 C37.24440946 19.9505228 39.56741294 30.16284648 39.5612793 41.74194336 C39.39482816 52.98996851 35.70470438 61.65554347 28.1875 70 C19.17118849 78.65962226 7.7312098 79.78258348 -4.12109375 79.58984375 C-15.4383635 79.12284083 -23.77007812 73.56857902 -31.4375 65.625 C-39.13731276 56.4660903 -40.66822988 43.87110221 -39.6875 32.3125 C-37.3372731 20.9719473 -31.1621877 11.95287941 -21.6875 5.3125 C-14.39256264 1.03426606 -8.36897112 0.09196672 0 0 Z " fill="#FCFCFC" transform="translate(471.6875,576.6875)"/>
<path d="M0 0 C6.373125 -0.0825 12.74625 -0.165 19.3125 -0.25 C21.30063721 -0.28641602 23.28877441 -0.32283203 25.3371582 -0.36035156 C39.53796596 -0.51261766 50.15974315 1.46740871 60.68359375 11.625 C68.64641367 20.20339951 70.40530462 29.81293844 70.21484375 41.16796875 C69.60716821 52.00669058 65.04000589 60.7639947 57 68 C56.2575 68.680625 55.515 69.36125 54.75 70.0625 C48.91428887 74.17402375 42.17729121 77.13693926 34.96582031 77.11352539 C34.17449707 77.11340454 33.38317383 77.11328369 32.56787109 77.11315918 C31.74625488 77.10804321 30.92463867 77.10292725 30.078125 77.09765625 C29.3154834 77.09664917 28.5528418 77.09564209 27.76708984 77.09460449 C24.92804452 77.0893867 22.08902069 77.07542544 19.25 77.0625 C12.8975 77.041875 6.545 77.02125 0 77 C0 51.59 0 26.18 0 0 Z " fill="#FBFBFB" transform="translate(526,578)"/>
<path d="M0 0 C0.9079834 -0.01877197 1.8159668 -0.03754395 2.75146484 -0.05688477 C6.89035134 -0.01357 11.00905653 0.16885096 15.13671875 0.47265625 C11.64671905 4.6329753 8.09306614 8.61728383 4.19921875 12.41015625 C1.24736083 15.32687301 -1.60882163 18.25228054 -4.30078125 21.41015625 C-8.84396361 26.72873753 -13.8804907 31.57095994 -18.86328125 36.47265625 C-17.2534601 40.57038282 -14.28722299 43.23750919 -11.17578125 46.22265625 C-7.80033922 49.48170373 -4.55732666 52.7768222 -1.49609375 56.3359375 C2.31477238 60.74918504 6.41522357 64.82726345 10.57421875 68.91015625 C12.01265517 70.32324578 13.44898317 71.73848598 14.8828125 73.15625 C15.50857178 73.77040771 16.13433105 74.38456543 16.77905273 75.01733398 C18.13671875 76.47265625 18.13671875 76.47265625 18.13671875 77.47265625 C-1.16302005 79.10461023 -1.16302005 79.10461023 -7.08203125 75.52734375 C-9.31123476 72.96061999 -11.09324223 70.37135545 -12.86328125 67.47265625 C-14.00097567 66.11451771 -15.16659103 64.77911 -16.36328125 63.47265625 C-16.91113281 62.84359375 -17.45898438 62.21453125 -18.0234375 61.56640625 C-21.59697788 57.49970213 -25.23357655 53.48920022 -28.86328125 49.47265625 C-31.33128172 50.6243898 -32.9111169 51.5204919 -34.86328125 53.47265625 C-35.23501141 56.09093295 -35.23501141 56.09093295 -35.27734375 59.13671875 C-35.31601562 60.25820313 -35.3546875 61.3796875 -35.39453125 62.53515625 C-35.4409375 64.29859375 -35.4409375 64.29859375 -35.48828125 66.09765625 C-35.52695312 67.28101563 -35.565625 68.464375 -35.60546875 69.68359375 C-35.69996629 72.61301764 -35.78272124 75.54281595 -35.86328125 78.47265625 C-41.14328125 78.47265625 -46.42328125 78.47265625 -51.86328125 78.47265625 C-51.86328125 53.06265625 -51.86328125 27.65265625 -51.86328125 1.47265625 C-46.58328125 1.47265625 -41.30328125 1.47265625 -35.86328125 1.47265625 C-35.53328125 12.36265625 -35.20328125 23.25265625 -34.86328125 34.47265625 C-31.89328125 30.84265625 -28.92328125 27.21265625 -25.86328125 23.47265625 C-22.91212601 20.21889841 -19.93216003 17.01964636 -16.87939453 13.86303711 C-13.71720648 10.56701546 -11.16349227 7.42100573 -8.73828125 3.53515625 C-5.84793861 0.77941994 -3.97040562 0.0729531 0 0 Z " fill="#F9F9F9" transform="translate(411.86328125,577.52734375)"/>
<path d="M0 0 C17.49 0 34.98 0 53 0 C53 4.62 53 9.24 53 14 C40.46 14 27.92 14 15 14 C15 19.94 15 25.88 15 32 C25.89 32 36.78 32 48 32 C48 36.62 48 41.24 48 46 C37.11 46 26.22 46 15 46 C15 51.94 15 57.88 15 64 C28.2 64 41.4 64 55 64 C55 68.29 55 72.58 55 77 C36.85 77 18.7 77 0 77 C0 51.59 0 26.18 0 0 Z " fill="#FCFBFB" transform="translate(610,578)"/>
<path d="M0 0 C6.97430398 4.6587796 9.91341241 11.36032233 11.96484375 19.3125 C13.24456362 26.44236785 10.55287259 33.13595691 6.83203125 39.140625 C3.10983753 44.02138233 -2.01713651 47.14449247 -8.03515625 48.3125 C-16.35266462 48.98410006 -22.78867184 48.11131927 -29.78515625 43.5 C-35.8590078 37.59486654 -38.06126859 31.27591508 -38.41015625 22.9375 C-38.23700349 15.03740535 -35.15057687 8.57794481 -29.78125 2.8203125 C-21.49814254 -4.33243801 -9.58093048 -4.98970701 0 0 Z " fill="#0F0E0E" transform="translate(485.03515625,593.6875)"/>
<path d="M0 0 C3.980625 -0.0825 7.96125 -0.165 12.0625 -0.25 C13.30394775 -0.28641602 14.54539551 -0.32283203 15.82446289 -0.36035156 C23.22000062 -0.43440847 27.93089018 0.13112275 33.44873047 5.37744141 C39.48068398 12.00114403 39.52733617 19.6181228 39.30859375 28.07421875 C38.76007176 35.05225163 36.75115094 39.67506708 31.625 44.4375 C22.65741036 51.89632455 11.08275294 49 0 49 C0 32.83 0 16.66 0 0 Z " fill="#0E0D0D" transform="translate(541,592)"/>
<path d="M0 0 C4.516875 -0.061875 9.03375 -0.12375 13.6875 -0.1875 C15.81191528 -0.22846802 15.81191528 -0.22846802 17.97924805 -0.27026367 C19.10371338 -0.27775635 20.22817871 -0.28524902 21.38671875 -0.29296875 C22.53358154 -0.3086792 23.68044434 -0.32438965 24.86206055 -0.34057617 C29.1320785 0.12287011 31.66439776 1.80256351 34.8125 4.625 C36.67114646 8.34229291 36.6876319 11.93211446 36 16 C34 19.0625 34 19.0625 32 21 C32.639375 21.61875 33.27875 22.2375 33.9375 22.875 C37.32860213 26.3688628 37.34182758 28.97344627 37.28125 33.67578125 C36.84395785 37.28951498 35.40621755 39.33365082 33 42 C29.05996789 44.02713984 25.78095616 44.23544252 21.38671875 44.1953125 C20.26225342 44.19031738 19.13778809 44.18532227 17.97924805 44.18017578 C16.56297119 44.16196777 15.14669434 44.14375977 13.6875 44.125 C9.170625 44.08375 4.65375 44.0425 0 44 C0 29.48 0 14.96 0 0 Z " fill="#F8F8F8" transform="translate(361,678)"/>
<path d="M0 0 C1.51400391 0.01740234 1.51400391 0.01740234 3.05859375 0.03515625 C4.07050781 0.04417969 5.08242188 0.05320312 6.125 0.0625 C7.29869141 0.07990234 7.29869141 0.07990234 8.49609375 0.09765625 C11.74441547 7.95326736 14.65259931 15.92374691 17.49755859 23.93188477 C18.2539604 26.05726034 19.01753509 28.17997732 19.78125 30.30273438 C20.26476181 31.65999998 20.74785059 33.01741637 21.23046875 34.375 C21.66584961 35.59437256 22.10123047 36.81374512 22.54980469 38.07006836 C23.49609375 41.09765625 23.49609375 41.09765625 23.49609375 44.09765625 C20.85609375 44.09765625 18.21609375 44.09765625 15.49609375 44.09765625 C14.99205607 42.80755982 14.49299449 41.51551836 13.99609375 40.22265625 C13.71765625 39.50335937 13.43921875 38.7840625 13.15234375 38.04296875 C12.49609375 36.09765625 12.49609375 36.09765625 12.49609375 34.09765625 C6.22609375 34.42765625 -0.04390625 34.75765625 -6.50390625 35.09765625 C-7.49390625 38.06765625 -8.48390625 41.03765625 -9.50390625 44.09765625 C-12.47390625 44.09765625 -15.44390625 44.09765625 -18.50390625 44.09765625 C-16.11514671 35.68688402 -13.20484898 27.50636281 -10.20556641 19.29907227 C-9.3697746 17.01014803 -8.54011486 14.71906193 -7.7109375 12.42773438 C-7.18135063 10.9725248 -6.65141581 9.51744181 -6.12109375 8.0625 C-5.87318085 7.37719711 -5.62526794 6.69189423 -5.36984253 5.98582458 C-3.2201398 0.12559048 -3.2201398 0.12559048 0 0 Z " fill="#F6F6F6" transform="translate(507.50390625,677.90234375)"/>
<path d="M0 0 C2.97 0 5.94 0 9 0 C9 5.61 9 11.22 9 17 C9.33 16.67 9.66 16.34 10 16 C10.45632813 15.54890869 10.91265625 15.09781738 11.3828125 14.63305664 C13.25781124 12.77881531 15.12891676 10.92069192 17 9.0625 C17.65484375 8.41603516 18.3096875 7.76957031 18.984375 7.10351562 C19.60828125 6.48283203 20.2321875 5.86214844 20.875 5.22265625 C21.44992187 4.65297119 22.02484375 4.08328613 22.6171875 3.49633789 C24.10107336 2.03002371 24.10107336 2.03002371 25 0 C28.96 0 32.92 0 37 0 C31.72898586 6.41069287 25.90871848 12.18590512 20 18 C21.34559789 21.77909027 23.03850417 24.65070244 25.4765625 27.828125 C26.146875 28.70984375 26.8171875 29.5915625 27.5078125 30.5 C28.20648437 31.4075 28.90515625 32.315 29.625 33.25 C31.01503085 35.0661717 32.40316362 36.88379828 33.7890625 38.703125 C34.40475098 39.50395508 35.02043945 40.30478516 35.65478516 41.12988281 C37 43 37 43 37 44 C32.94697247 45.2206953 30.02580664 45.40006994 26 44 C21.06264764 39.15063725 17.51491046 32.91712079 14 27 C11.97283794 27.74880702 11.97283794 27.74880702 10 29 C9.53290648 31.66482841 9.30427527 33.95070966 9.25 36.625 C9.22035156 37.33140625 9.19070313 38.0378125 9.16015625 38.765625 C9.08944643 40.50980047 9.04245965 42.25490827 9 44 C6.03 44 3.06 44 0 44 C0 29.48 0 14.96 0 0 Z " fill="#F8F8F8" transform="translate(630,678)"/>
<path d="M0 0 C2.6456156 1.78627331 4.44404392 3.74620623 6.140625 6.4453125 C2.675625 8.9203125 2.675625 8.9203125 -0.859375 11.4453125 C-1.87 10.6409375 -2.880625 9.8365625 -3.921875 9.0078125 C-7.5487861 6.44118791 -10.32784372 5.4453125 -14.859375 5.4453125 C-18.63608703 6.70421651 -20.5313486 8.09138928 -23.234375 11.0078125 C-25.41224457 15.61484428 -25.67312979 19.43258302 -24.859375 24.4453125 C-22.79279134 28.57847982 -21.11020341 30.72788457 -16.859375 32.4453125 C-11.29235138 33.2121476 -7.53593303 32.65209515 -2.859375 29.4453125 C1.140625 29.4453125 1.140625 29.4453125 3.390625 31.4453125 C3.968125 32.1053125 4.545625 32.7653125 5.140625 33.4453125 C3.76784409 36.82065525 2.5629313 38.108586 -0.734375 39.6328125 C-1.75144531 40.11814453 -1.75144531 40.11814453 -2.7890625 40.61328125 C-8.28045973 42.82020127 -13.73392905 43.52089035 -19.390625 41.57421875 C-26.5142685 38.30206323 -31.25011975 34.39530266 -34.234375 27.0703125 C-35.76364792 18.20052954 -35.02513476 12.07095786 -29.859375 4.4453125 C-21.35176138 -4.9537595 -10.98884159 -6.04731849 0 0 Z " fill="#F9F9F9" transform="translate(592.859375,680.5546875)"/>
<path d="M0 0 C2.64 0 5.28 0 8 0 C8 11.55 8 23.1 8 35 C14.93 35 21.86 35 29 35 C29 37.97 29 40.94 29 44 C19.43 44 9.86 44 0 44 C0 29.48 0 14.96 0 0 Z " fill="#FBFBFB" transform="translate(429,678)"/>
<path d="M0 0 C0.66 0.33 1.32 0.66 2 1 C2 5.29 2 9.58 2 14 C3.11560303 13.99476318 4.23120605 13.98952637 5.38061523 13.98413086 C9.50479333 13.96608225 13.62896791 13.95456851 17.75317383 13.94506836 C19.54094021 13.94002782 21.32870245 13.93319546 23.11645508 13.92456055 C25.68051168 13.9124827 28.24451397 13.90676906 30.80859375 13.90234375 C31.6127623 13.89718246 32.41693085 13.89202118 33.24546814 13.88670349 C35.16401715 13.88650785 37.08245368 13.93798017 39 14 C42.03604137 17.03604137 41.15353955 25.01877056 41.23046875 29.08203125 C41 31 41 31 39 33 C36.67147827 33.24050903 36.67147827 33.24050903 33.72412109 33.22705078 C32.6231308 33.22689972 31.5221405 33.22674866 30.38778687 33.22659302 C29.19505157 33.21627045 28.00231628 33.20594788 26.7734375 33.1953125 C25.55548492 33.1924826 24.33753235 33.18965271 23.08267212 33.18673706 C19.18001617 33.17551256 15.27758697 33.15040372 11.375 33.125 C8.73437831 33.11497314 6.09375303 33.10584678 3.453125 33.09765625 C-3.0313278 33.07556581 -9.5156477 33.04206592 -16 33 C-16 32.01 -16 31.02 -16 30 C2.15 30 20.3 30 39 30 C39 25.71 39 21.42 39 17 C25.8 17 12.6 17 -1 17 C-1 1 -1 1 0 0 Z " fill="#1D1D1C" transform="translate(626,625)"/>
<path d="M0 0 C12.87 0 25.74 0 39 0 C39 0.33 39 0.66 39 1 C26.79 1 14.58 1 2 1 C2 5.62 2 10.24 2 15 C12.56 15 23.12 15 34 15 C34 20.61 34 26.22 34 32 C31.04189524 33.47905238 28.0452845 33.12190903 24.8046875 33.09765625 C24.09724396 33.0962413 23.38980042 33.09482635 22.66091919 33.09336853 C20.39890331 33.087766 18.13698602 33.07521318 15.875 33.0625 C14.34244935 33.05748532 12.80989714 33.05292236 11.27734375 33.04882812 C7.51819112 33.03779577 3.75911228 33.02052952 0 33 C0 32.34 0 31.68 0 31 C10.89 31 21.78 31 33 31 C33 26.38 33 21.76 33 17 C22.11 17 11.22 17 0 17 C0 11.39 0 5.78 0 0 Z " fill="#010101" transform="translate(625,593)"/>
<path d="M0 0 C2.77141717 -0.08089542 5.54047819 -0.14044062 8.3125 -0.1875 C9.09818359 -0.21263672 9.88386719 -0.23777344 10.69335938 -0.26367188 C11.45068359 -0.27333984 12.20800781 -0.28300781 12.98828125 -0.29296875 C14.03302612 -0.31653442 14.03302612 -0.31653442 15.09887695 -0.34057617 C17.60898309 0.10909611 18.49501126 0.9717428 20 3 C19.875 6.0625 19.875 6.0625 19 9 C15.20836973 11.52775351 12.19125969 11.22443035 7.8125 11.125 C7.06291016 11.11597656 6.31332031 11.10695313 5.54101562 11.09765625 C3.69387346 11.07412578 1.84689588 11.03825561 0 11 C0 7.37 0 3.74 0 0 Z " fill="#121110" transform="translate(370,703)"/>
<path d="M0 0 C2.4178712 -0.10826289 4.83087556 -0.18739789 7.25 -0.25 C8.27287109 -0.30027344 8.27287109 -0.30027344 9.31640625 -0.3515625 C12.82953889 -0.41977867 14.65207609 -0.2628516 17.4921875 1.8828125 C19 4 19 4 18.875 6.125 C18 8 18 8 16 10 C13.25514407 10.14507695 10.61519457 10.18652423 7.875 10.125 C7.12089844 10.11597656 6.36679687 10.10695313 5.58984375 10.09765625 C3.72642746 10.0740687 1.86317407 10.03819719 0 10 C0 6.7 0 3.4 0 0 Z " fill="#121111" transform="translate(370,686)"/>
<path d="M0 0 C2.56679483 2.56679483 3.33348554 5.05010682 4.625 8.4375 C5.07101562 9.59121094 5.51703125 10.74492188 5.9765625 11.93359375 C7 15 7 15 7 18 C2.38 18 -2.24 18 -7 18 C-4.69 12.06 -2.38 6.12 0 0 Z " fill="#100F0F" transform="translate(510,687)"/>
<path d="M0 0 C0.74168427 0.00444122 1.48336853 0.00888245 2.24752808 0.01345825 C3.50860886 0.01368484 3.50860886 0.01368484 4.79516602 0.01391602 C6.15773026 0.02939987 6.15773026 0.02939987 7.54782104 0.04519653 C8.47722504 0.04802643 9.40662903 0.05085632 10.36419678 0.05377197 C13.33959704 0.06498834 16.3146989 0.09009543 19.29000854 0.11550903 C21.30432712 0.12553696 23.31865041 0.13466313 25.33297729 0.14285278 C30.27710311 0.16493243 35.22100519 0.1994721 40.16500854 0.24050903 C37.43844604 5.13894653 37.43844604 5.13894653 34.97750854 6.05300903 C34.37938354 6.11488403 33.78125854 6.17675903 33.16500854 6.24050903 C32.67000854 4.75550903 32.67000854 4.75550903 32.16500854 3.24050903 C27.55773608 2.99800094 22.95029724 2.78318263 18.34054565 2.59353638 C16.77379265 2.52522666 15.20734572 2.44946158 13.6413269 2.36599731 C11.38529657 2.24707034 9.12951101 2.15532303 6.87203979 2.06863403 C6.17601151 2.02611511 5.47998322 1.98359619 4.76286316 1.93978882 C1.03976681 1.82519968 -0.68743433 2.14100191 -3.81668091 4.25125122 C-4.48272339 4.9077063 -5.14876587 5.56416138 -5.83499146 6.24050903 C-3.11317155 0.4080378 -3.11317155 0.4080378 0 0 Z " fill="#01BCFA" transform="translate(554.8349914550781,328.7594909667969)"/>
<path d="M0 0 C0.80566406 0.00257813 1.61132812 0.00515625 2.44140625 0.0078125 C3.64603516 0.00394531 3.64603516 0.00394531 4.875 0 C7.00390625 0.1328125 7.00390625 0.1328125 9.00390625 1.1328125 C8.67390625 12.6828125 8.34390625 24.2328125 8.00390625 36.1328125 C7.67390625 36.1328125 7.34390625 36.1328125 7.00390625 36.1328125 C7.00390625 24.9128125 7.00390625 13.6928125 7.00390625 2.1328125 C4.36390625 2.1328125 1.72390625 2.1328125 -0.99609375 2.1328125 C-0.99609375 16.6528125 -0.99609375 31.1728125 -0.99609375 46.1328125 C-1.32609375 46.1328125 -1.65609375 46.1328125 -1.99609375 46.1328125 C-2.16393005 39.74259858 -2.3238916 33.35222302 -2.47827148 26.96166992 C-2.53177676 24.78584282 -2.5871124 22.61005995 -2.64428711 20.43432617 C-2.7259609 17.31438744 -2.80113907 14.19435097 -2.875 11.07421875 C-2.90203506 10.09505997 -2.92907013 9.11590118 -2.95692444 8.10707092 C-2.97702072 7.20621262 -2.997117 6.30535431 -3.01782227 5.37719727 C-3.03780777 4.57999771 -3.05779327 3.78279816 -3.0783844 2.96144104 C-2.96113416 0.35595505 -2.59064666 0.17237179 0 0 Z " fill="#323232" transform="translate(429.99609375,675.8671875)"/>
<path d="M0 0 C5.61 0 11.22 0 17 0 C17.66 1.32 18.32 2.64 19 4 C18.34 3.67 17.68 3.34 17 3 C14.45384991 2.76827173 11.92603775 2.58105471 9.375 2.4375 C8.66859375 2.39431641 7.9621875 2.35113281 7.234375 2.30664062 C5.48981463 2.20055249 3.74493303 2.09977111 2 2 C2 4.31 2 6.62 2 9 C4.45933991 8.88630789 6.9167909 8.75957349 9.375 8.625 C10.42300781 8.57859375 10.42300781 8.57859375 11.4921875 8.53125 C15.70185827 8.40500502 15.70185827 8.40500502 19 6 C18.625 7.9375 18.625 7.9375 18 10 C14.81175432 11.59412284 11.37103338 11.10174735 7.875 11.0625 C7.12089844 11.05798828 6.36679687 11.05347656 5.58984375 11.04882812 C3.72652873 11.03703499 1.86325445 11.01909942 0 11 C0 7.37 0 3.74 0 0 Z " fill="#040404" transform="translate(370,703)"/>
<path d="M0 0 C2.4377963 -0.05397335 4.87439685 -0.09365616 7.3125 -0.125 C8.00279297 -0.14175781 8.69308594 -0.15851562 9.40429688 -0.17578125 C13.17135396 -0.21217794 14.78431704 -0.14378864 18 2 C17.67 3.32 17.34 4.64 17 6 C16.67 5.01 16.34 4.02 16 3 C9.07 2.505 9.07 2.505 2 2 C2 3.98 2 5.96 2 8 C2.84304688 7.97679687 3.68609375 7.95359375 4.5546875 7.9296875 C6.19824219 7.90261719 6.19824219 7.90261719 7.875 7.875 C9.51082031 7.84019531 9.51082031 7.84019531 11.1796875 7.8046875 C14 8 14 8 16 10 C10.72 10 5.44 10 0 10 C0 6.7 0 3.4 0 0 Z " fill="#050605" transform="translate(370,686)"/>
<path d="M0 0 C11.55 0 23.1 0 35 0 C35 2.31 35 4.62 35 7 C34.34 7 33.68 7 33 7 C33 5.35 33 3.7 33 2 C22.44 2 11.88 2 1 2 C0.67 1.34 0.34 0.68 0 0 Z " fill="#02A9EC" transform="translate(432,329)"/>
<path d="M0 0 C2.85779017 1.29719924 4.91008536 2.6636826 7.11621094 4.88916016 C7.69651062 5.4696109 8.2768103 6.05006165 8.87469482 6.64810181 C9.48838928 7.27211884 10.10208374 7.89613586 10.734375 8.5390625 C11.37240051 9.17991791 12.01042603 9.82077332 12.66778564 10.48104858 C14.69994069 12.52437821 16.72502218 14.57455982 18.75 16.625 C20.1284453 18.0134786 21.50734636 19.4015049 22.88671875 20.7890625 C26.26311894 24.18748697 29.63319288 27.59207254 33 31 C30 31 30 31 27.6953125 28.98828125 C26.84710938 28.10527344 25.99890625 27.22226562 25.125 26.3125 C24.28195312 25.44238281 23.43890625 24.57226562 22.5703125 23.67578125 C21.72210938 22.79277344 20.87390625 21.90976562 20 21 C18.33695257 19.32972193 16.67090933 17.66241318 15 16 C14.34 15.34 13.68 14.68 13 14 C11.68252676 13.30251417 10.35085807 12.63040043 9 12 C9 11.34 9 10.68 9 10 C5.5595444 6.17656279 5.5595444 6.17656279 1 4 C0.3125 1.9375 0.3125 1.9375 0 0 Z " fill="#15040C" transform="translate(360,475)"/>
<path d="M0 0 C3.36335594 1.45745424 5.54534005 3.31117854 8.109375 5.9140625 C8.86347656 6.67460937 9.61757813 7.43515625 10.39453125 8.21875 C11.17183594 9.0128125 11.94914062 9.806875 12.75 10.625 C13.54277344 11.42679687 14.33554687 12.22859375 15.15234375 13.0546875 C17.10614493 15.03202846 19.05512103 17.01388909 21 19 C16.787283 19 15.6583448 17.15885779 12.625 14.3125 C11.68914062 13.44238281 10.75328125 12.57226562 9.7890625 11.67578125 C1.5278038 3.75006387 1.5278038 3.75006387 0 0 Z " fill="#02ABE5" transform="translate(368,443)"/>
<path d="M0 0 C0.66 0.33 1.32 0.66 2 1 C1.21625 1.7425 0.4325 2.485 -0.375 3.25 C-2.56504531 5.54433318 -3.82731386 7.12158858 -5 10 C-5.99 10 -6.98 10 -8 10 C-8 10.66 -8 11.32 -8 12 C-9.609375 13.5859375 -9.609375 13.5859375 -11.75 15.375 C-14.6243732 17.81617866 -17.38543992 20.27649992 -20 23 C-20.66 22.67 -21.32 22.34 -22 22 C-14.74 14.74 -7.48 7.48 0 0 Z " fill="#15050C" transform="translate(643,485)"/>
<path d="M0 0 C0 3 0 3 -1.5 5.375 C-3.13485866 8.23600265 -3.27690589 9.76943128 -3 13 C-3.99 13 -4.98 13 -6 13 C-6 12.34 -6 11.68 -6 11 C-7.65 11.66 -9.3 12.32 -11 13 C-10.62488281 12.56429688 -10.24976563 12.12859375 -9.86328125 11.6796875 C-6.54140223 7.81392401 -3.25357073 3.92342352 0 0 Z " fill="#01B2F4" transform="translate(502,388)"/>
<path d="M0 0 C0.66 0.33 1.32 0.66 2 1 C-3.28 6.28 -8.56 11.56 -14 17 C-14.66 16.01 -15.32 15.02 -16 14 C-15.29488281 13.62230469 -14.58976562 13.24460937 -13.86328125 12.85546875 C-10.54950123 10.70806696 -7.91467915 8.13434759 -5.1875 5.3125 C-4.68541016 4.80138672 -4.18332031 4.29027344 -3.66601562 3.76367188 C-2.43936491 2.51365638 -1.21902509 1.2574532 0 0 Z " fill="#150103" transform="translate(385,363)"/>
<path d="M0 0 C4 0 4 0 6.75 2.5 C7.86375 3.7375 7.86375 3.7375 9 5 C9.66 4.67 10.32 4.34 11 4 C11.33 6.31 11.66 8.62 12 11 C10 10 10 10 8.25 7.625 C5.74728216 4.70516253 3.49933671 3.51107721 0 2 C0 1.34 0 0.68 0 0 Z M8 11 C10 12 10 12 10 12 Z " fill="#151414" transform="translate(588,677)"/>
<path d="M0 0 C0.66 0.33 1.32 0.66 2 1 C1.67 1.66 1.34 2.32 1 3 C0.01 2.67 -0.98 2.34 -2 2 C-3.72795352 1.93197033 -5.45835365 1.91504355 -7.1875 1.9375 C-8.08855469 1.94652344 -8.98960937 1.95554687 -9.91796875 1.96484375 C-10.94857422 1.98224609 -10.94857422 1.98224609 -12 2 C-8.1898729 -1.8101271 -4.97916082 -0.90530197 0 0 Z " fill="#1A1919" transform="translate(585,686)"/>
<path d="M0 0 C2.66666667 2.66666667 5.33333333 5.33333333 8 8 C7.67 8.66 7.34 9.32 7 10 C4.625 8.9375 4.625 8.9375 2 7 C0.6875 3.3125 0.6875 3.3125 0 0 Z " fill="#01B3F4" transform="translate(581,504)"/>
<path d="M0 0 C0.99 0 1.98 0 3 0 C2.67 1.98 2.34 3.96 2 6 C1.01 6.33 0.02 6.66 -1 7 C-1.33 7.99 -1.66 8.98 -2 10 C-3 8 -3 8 -2.44140625 6.0546875 C-2.15136719 5.33539062 -1.86132812 4.61609375 -1.5625 3.875 C-1.27503906 3.15054688 -0.98757813 2.42609375 -0.69140625 1.6796875 C-0.46324219 1.12539063 -0.23507812 0.57109375 0 0 Z " fill="#181817" transform="translate(594,627)"/>
<path d="M0 0 C3.7952131 1.49097658 5.61042731 3.75700849 8 7 C5 7 5 7 2 6 C0.8125 2.9375 0.8125 2.9375 0 0 Z " fill="#02A1E4" transform="translate(687,424)"/>
<path d="M0 0 C2.35953094 2.35953094 2.49141413 3.77895617 3 7 C2.34 7 1.68 7 1 7 C0.64808594 6.03320312 0.64808594 6.03320312 0.2890625 5.046875 C-0.81161073 2.7922092 -0.81161073 2.7922092 -3.1640625 2.390625 C-4.38222656 2.32101562 -4.38222656 2.32101562 -5.625 2.25 C-6.85089844 2.16492188 -6.85089844 2.16492188 -8.1015625 2.078125 C-8.72804688 2.05234375 -9.35453125 2.0265625 -10 2 C-10 1.67 -10 1.34 -10 1 C-8.37675914 0.77837671 -6.751279 0.57310197 -5.125 0.375 C-4.22007812 0.25898437 -3.31515625 0.14296875 -2.3828125 0.0234375 C-1.59648438 0.01570312 -0.81015625 0.00796875 0 0 Z " fill="#151414" transform="translate(519,712)"/>
<path d="M0 0 C2.95409701 1.37154504 5.44008376 2.98863724 8 5 C7.67 5.99 7.34 6.98 7 8 C5.8274869 7.04882866 4.66212985 6.08882991 3.5 5.125 C2.8503125 4.59132813 2.200625 4.05765625 1.53125 3.5078125 C1.0259375 3.01023437 0.520625 2.51265625 0 2 C0 1.34 0 0.68 0 0 Z " fill="#121622" transform="translate(671,406)"/>
<path d="M0 0 C3.43595166 1.52708963 6.11912454 3.59927045 9 6 C6 7 6 7 3.375 5.8125 C1 4 1 4 0.1875 1.8125 C0.125625 1.214375 0.06375 0.61625 0 0 Z " fill="#171616" transform="translate(443,646)"/>
<path d="M0 0 C1.5 1.375 1.5 1.375 3 3 C3 3.66 3 4.32 3 5 C4.32 5.66 5.64 6.32 7 7 C7 7.99 7 8.98 7 10 C6.01 9.34 5.02 8.68 4 8 C4 7.34 4 6.68 4 6 C2.68 5.34 1.36 4.68 0 4 C0 2.68 0 1.36 0 0 Z " fill="#049AD4" transform="translate(359,432)"/>
<path d="M0 0 C0.66 0.99 1.32 1.98 2 3 C1.34 3 0.68 3 0 3 C0 5.31 0 7.62 0 10 C-0.99 10.495 -0.99 10.495 -2 11 C-2.95465783 8.83032311 -3.14401212 7.43671207 -2.3984375 5.17578125 C-1.64129615 3.4315257 -0.82390802 1.71372869 0 0 Z " fill="#181817" transform="translate(510,687)"/>
<path d="M0 0 C3.36720387 1.39332574 4.9859524 2.9789286 7 6 C6.01 6.33 5.02 6.66 4 7 C0 2.25 0 2.25 0 0 Z " fill="#141625" transform="translate(348,463)"/>
<path d="M0 0 C0.99 0.33 1.98 0.66 3 1 C3.33 3.64 3.66 6.28 4 9 C3.34 9 2.68 9 2 9 C1.34 6.03 0.68 3.06 0 0 Z " fill="#1A1919" transform="translate(529,713)"/>
<path d="M0 0 C0.99 0.33 1.98 0.66 3 1 C4.1875 4.0625 4.1875 4.0625 5 7 C4.01 7 3.02 7 2 7 C0.5393715 4.35261084 0 3.10551666 0 0 Z " fill="#171716" transform="translate(591,594)"/>
<path d="M0 0 C3.36720387 1.39332574 4.9859524 2.9789286 7 6 C4 6 4 6 1.8125 4.125 C0 2 0 2 0 0 Z " fill="#14121E" transform="translate(608,494)"/>
<path d="M0 0 C2.66666667 1.33333333 5.33333333 2.66666667 8 4 C7.67 5.32 7.34 6.64 7 8 C5.83035398 6.8572081 4.66435444 5.71068285 3.5 4.5625 C2.8503125 3.92441406 2.200625 3.28632813 1.53125 2.62890625 C0 1 0 1 0 0 Z " fill="#180405" transform="translate(688,423)"/>
<path d="M0 0 C-1.36983503 3.16115776 -1.9890638 3.9927092 -5 6 C-5 4.35 -5 2.7 -5 1 C-2 0 -2 0 0 0 Z " fill="#151421" transform="translate(611,368)"/>
</svg>
